inDegrees=no
num_controls=7
num_derivatives=13
num_iterations=107
num_multipliers=7
num_parameters=0
num_slacks=7
num_states=26
objective=5.961814
objective_accelerations=0.402493
objective_balance=0.018426
objective_effort=0.429725
objective_height=5.043807
objective_ligament=0.067364
solver_duration=935.954527
status=Solve_Succeeded
success=true
DataType=double
version=3
OpenSimVersion=4.4-2022-07-23-0e9fedc
endheader
time	/jointset/ground_pelvis/pelvis_tilt/value	/jointset/ground_pelvis/pelvis_tx/value	/jointset/ground_pelvis/pelvis_ty/value	/jointset/hip_r/hip_flexion_r/value	/jointset/hip_r/hip_adduction_r/value	/jointset/hip_r/hip_rotation_r/value	/jointset/back/lumbar_extension/value	/jointset/patellofemoral_r/patellar_flexion_r/value	/jointset/knee_r/knee_flexion_r/value	/jointset/knee_r/knee_adduction_r/value	/jointset/knee_r/knee_rotation_r/value	/jointset/ankle_r/ankle_angle_r/value	/jointset/subtalar_r/subtalar_angle_r/value	/jointset/ground_pelvis/pelvis_tilt/speed	/jointset/ground_pelvis/pelvis_tx/speed	/jointset/ground_pelvis/pelvis_ty/speed	/jointset/hip_r/hip_flexion_r/speed	/jointset/hip_r/hip_adduction_r/speed	/jointset/hip_r/hip_rotation_r/speed	/jointset/back/lumbar_extension/speed	/jointset/patellofemoral_r/patellar_flexion_r/speed	/jointset/knee_r/knee_flexion_r/speed	/jointset/knee_r/knee_adduction_r/speed	/jointset/knee_r/knee_rotation_r/speed	/jointset/ankle_r/ankle_angle_r/speed	/jointset/subtalar_r/subtalar_angle_r/speed	/forceset/tau_hip_flexion_r	/forceset/tau_hip_adduction_r	/forceset/tau_hip_rotation_r	/forceset/tau_knee_flexion_r	/forceset/tau_ankle_angle_r	/forceset/tau_subtalar_angle_r	/forceset/tau_lumbar_extension	lambda_cid13_p0	lambda_cid14_p0	lambda_cid14_p1	lambda_cid14_p2	lambda_cid14_p3	lambda_cid14_p4	lambda_cid14_p5	/jointset/ground_pelvis/pelvis_tilt/accel	/jointset/ground_pelvis/pelvis_tx/accel	/jointset/ground_pelvis/pelvis_ty/accel	/jointset/hip_r/hip_flexion_r/accel	/jointset/hip_r/hip_adduction_r/accel	/jointset/hip_r/hip_rotation_r/accel	/jointset/back/lumbar_extension/accel	/jointset/patellofemoral_r/patellar_flexion_r/accel	/jointset/knee_r/knee_flexion_r/accel	/jointset/knee_r/knee_adduction_r/accel	/jointset/knee_r/knee_rotation_r/accel	/jointset/ankle_r/ankle_angle_r/accel	/jointset/subtalar_r/subtalar_angle_r/accel	gamma_cid13_p0	gamma_cid14_p0	gamma_cid14_p1	gamma_cid14_p2	gamma_cid14_p3	gamma_cid14_p4	gamma_cid14_p5
1.5	-0.1228864042941642	0.04891238772827688	0.8708844646263751	0.6883769476589625	-0.2259278576776862	-0.1474984854421349	-0.2843059611169043	0.627765456733353	0.6277654567330502	0.04136477501342457	0.1744922074918688	0.2311473946781024	0.05300152802586942	0.2663696883080597	0.1409796345548772	0.3228381978344725	-1.497369417561032	0.01593129803111176	-0.2791050602180719	0.70786154987232	-1.711591118186878	-1.711591118186865	0.2787340385201392	1.764514090755366e-05	-0.5679879636000867	-0.1375479170636619	-0.07380522403759776	-0.02284295433910704	0.006092303287856234	-0.3204074963005192	0.07987713393172524	-0.01180337142613884	0.1285262219292888	-35.23430733826634	-16.14108221171614	-3.675313540066561	-3.839537194465786	0.2512912679490079	-661.7962180930505	59.87829011028186	0.1206109175933221	0.3368950468538548	-0.4460396923804572	-0.7889462559229852	-0.02083768866484993	-0.5167006172988572	1.232906955021517	-0.8802854626684405	-0.8802854626684889	0.3921646384149014	-0.00129729867403973	-0.326520556813854	-0.02154913622292223	1.182297780644161e-07	1.611061355968459e-07	-5.389823347102902e-07	1.249151462954391e-06	-2.921791959553192e-08	1.968389272580277e-07	-8.173419358246259e-07
1.51	-0.1202171473992785	0.05033883967304883	0.8740898322800258	0.6733658465203435	-0.2257703842879009	-0.150314537328247	-0.2771667008915774	0.6106079765288391	0.6106079765290606	0.04417351032430695	0.1744926229634727	0.2254517631524096	0.05162409247476646	0.2674420360841703	0.1442894116042267	0.3181682600401545	-1.504635332205772	0.01556410149653586	-0.2840917624645399	0.7198768751105576	-1.719649680169111	-1.719649680169095	0.2829899855841305	6.399822675976544e-05	-0.5710513059514991	-0.1379132812880285	-0.06791054656576066	-0.02446079181361434	0.005426608607577414	-0.3175484749661484	0.08381151179475101	-0.01275775755560821	0.1231089697280707	-36.07616230457756	-14.76107957901591	-3.764239733456756	-3.92123375836462	-0.2645281427079639	-658.7028157651655	59.8045503612152	0.09461416720484717	0.3248166101709455	-0.4874914376834373	-0.6630730205633928	-0.04441911627265713	-0.4874103825237101	1.168802296371243	-0.7303820718151335	-0.7303820718144898	0.438819911308705	0.007607275712509962	-0.2831706188004176	-0.04011486022485467	1.289288258332703e-07	1.600405287946239e-07	-6.839570432387094e-07	1.252623272795504e-06	-1.324589467664586e-08	1.999602809288219e-07	-9.051413053110284e-07
1.52	-0.1175383535347068	0.05179774890355499	0.8772464964327871	0.6582885544449305	-0.2256165345595564	-0.1531800073076558	-0.2699106960162351	0.5933775626033525	0.593377562604068	0.04702410714001612	0.1744935030986222	0.2197281122943035	0.05024378632248339	0.2682770822436219	0.1474710917017224	0.3130974976566023	-1.510607604923049	0.01520656574520344	-0.2889886788791141	0.7312104798745719	-1.726177862383925	-1.726177862383905	0.287106339484823	0.0001105778525115106	-0.5735918300827401	-0.1381220372996479	-0.06201586909383756	-0.02607862928806774	0.004760913927253786	-0.3146894536317698	0.08774588965778478	-0.01371214368500409	0.1176917175269214	-36.88203792648297	-13.38938593557531	-3.850510715295533	-4.008049109373679	-0.7875899105933554	-655.7530251475943	59.80906569456486	0.07315059426169435	0.311275656482757	-0.5262046102273401	-0.5302178704303756	-0.01890553201605897	-0.4987434509201675	1.096562860176924	-0.5742095091844327	-0.5742095091842919	0.3642460057549365	-0.001251990694123923	-0.2219569127799276	0.009772506326541114	1.380727749916229e-07	1.592841742895066e-07	-8.022571819881071e-07	1.257086205292129e-06	-1.022700642870271e-10	2.021062422553857e-07	-9.778230977503677e-07
1.53	-0.1148524302517646	0.05328779148531855	0.8803505123861104	0.643158037749288	-0.225466266717153	-0.1560940551181164	-0.2625447813476912	0.5760895097065435	0.576089509706853	0.04991523511252489	0.1744949397446488	0.2139816362269864	0.04886209725043444	0.2688670864103043	0.1505115424950836	0.3076455740210388	-1.515277979710176	0.01484655224510216	-0.2937930105457043	0.7418531798600748	-1.731177762188559	-1.731177762188573	0.2911036252472274	0.0001671355141841232	-0.5756182955445834	-0.1381934142921587	-0.05614323708226131	-0.02779044631749341	0.004116856618742461	-0.3117962224165717	0.09155866693653937	-0.0147719531730359	0.1123043059275965	-37.647626859852	-12.0742140152725	-3.996015191003646	-4.081363451664694	-1.225207733395614	-652.9715955130653	59.74579554612938	0.04586790222438304	0.2965505591754526	-0.5636633263439474	-0.4027648624628276	-0.04450185034478578	-0.4668720345806572	1.030232472164493	-0.4246669123754371	-0.4246669123804286	0.4150694809011746	0.007893040660684371	-0.1802093312654696	-0.01223719709515084	1.455644318763176e-07	1.58856400350063e-07	-8.922155903472944e-07	1.262602205610236e-06	1.003617922238667e-08	2.032158492162047e-07	-1.034442464577202e-06
1.54	-0.1121618184122783	0.05480746272869994	0.8833982136858527	0.6279873537898644	-0.2253195895280427	-0.1590552650472379	-0.2550760178984032	0.5587591004724402	0.5587591004723202	0.05284585586653676	0.1744966986465038	0.2082174519113748	0.04748036552944886	0.2692147935510434	0.1533968240252871	0.3018345669403557	-1.518641057681644	0.014488435091495	-0.298421102614374	0.7517802360225991	-1.734649129844098	-1.734649129844146	0.2950048957863597	0.0001750290183571349	-0.577133479741592	-0.1381305670868812	-0.05027060507061684	-0.02950226334686889	0.003472799310252056	-0.3089029912013711	0.09537144421530087	-0.01583176266100027	0.106916894328325	-38.36868600385947	-10.76804012266738	-4.138695709865523	-4.160154044270046	-1.669716356093748	-650.3468981978127	59.76445708888062	0.02469118907322717	0.2802418038508561	-0.5980212992512565	-0.2687585072984529	-0.01852626271714402	-0.4634955313360583	0.953434095581298	-0.2685030793651688	-0.2685030793651496	0.345042961100303	-0.01098482219410476	-0.1197006598132829	0.03661734588421087	1.541281306546265e-07	1.577386613822555e-07	-9.993742090765881e-07	1.262651832107369e-06	2.20017029644722e-08	2.047273431173172e-07	-1.095082131247377e-06
